<svg width="162" height="27" viewBox="0 0 162 27" fill="none" xmlns="http://www.w3.org/2000/svg">
<g clip-path="url(#clip0_1_8)">
<mask id="mask0_1_8" style="mask-type:luminance" maskUnits="userSpaceOnUse" x="0" y="0" width="100" height="27">
<path d="M100 0H0V26.2267H100V0Z" fill="white"/>
</mask>
<g mask="url(#mask0_1_8)">
<path d="M89.38 4.04587H91.646V9.62556C91.646 9.86922 91.7272 10.0154 91.8897 10.0641C92.0521 10.0966 92.247 9.99917 92.4744 9.77176C92.8156 9.4144 93.1892 9.13825 93.5953 8.94333C94.0176 8.73216 94.4887 8.62658 95.0085 8.62658H96.0805C96.779 8.62658 97.4206 8.82962 98.0054 9.23572C98.5902 9.64181 99.0531 10.2022 99.3942 10.9169C99.7354 11.6154 99.9059 12.4032 99.9059 13.2804V21.1017H97.6399V13.5728C97.6399 13.0205 97.5506 12.5251 97.3719 12.0865C97.1932 11.6317 96.9333 11.2824 96.5922 11.0388C96.2511 10.7789 95.8612 10.6489 95.4227 10.6489H94.4968C93.9445 10.6489 93.4491 10.8276 93.0105 11.185C92.5882 11.5423 92.2552 12.0215 92.0115 12.6225C91.7679 13.2073 91.646 13.8408 91.646 14.523V21.1017H89.38V4.04587Z" fill="#00AB00"/>
<path d="M82.4516 8.62656C83.4587 8.62656 84.3521 8.9027 85.1318 9.45498C85.9277 10.0073 86.545 10.7707 86.9836 11.7453C87.4384 12.7037 87.6658 13.7758 87.6658 14.9616C87.6658 16.1311 87.4465 17.2032 87.0079 18.1778C86.5694 19.1362 85.9521 19.8997 85.1562 20.4682C84.3765 21.0205 83.4831 21.2966 82.476 21.2966H81.8181C81.3958 21.2966 80.9653 21.2073 80.5267 21.0286C80.0881 20.8337 79.6902 20.5819 79.3328 20.2733C79.1054 20.0946 78.9105 20.0377 78.748 20.1027C78.6018 20.1677 78.5287 20.322 78.5287 20.5657V26.0723H76.2628V8.82148H78.5287V9.38189C78.5287 9.62554 78.61 9.77986 78.7724 9.84483C78.9348 9.90981 79.1216 9.85295 79.3328 9.67427C79.6902 9.3494 80.08 9.09762 80.5024 8.91894C80.9409 8.72402 81.3795 8.62656 81.8181 8.62656H82.4516ZM81.4039 10.6002C80.8353 10.6002 80.3155 10.787 79.8445 11.1606C79.3897 11.5179 79.0242 12.0377 78.748 12.72C78.4719 13.3859 78.3338 14.1332 78.3338 14.9616C78.3338 15.79 78.4719 16.5453 78.748 17.2276C79.0242 17.8936 79.3897 18.4134 79.8445 18.787C80.3155 19.1443 80.8353 19.323 81.4039 19.323H82.281C82.8171 19.323 83.3125 19.1443 83.7673 18.787C84.2384 18.4134 84.612 17.8936 84.8881 17.2276C85.1805 16.5453 85.3267 15.79 85.3267 14.9616C85.3267 14.1332 85.1805 13.3859 84.8881 12.72C84.612 12.0377 84.2384 11.5179 83.7673 11.1606C83.3125 10.787 82.8171 10.6002 82.281 10.6002H81.4039Z" fill="#00AB00"/>
<path d="M73.345 10.7464C72.8252 10.7464 72.3785 10.9251 72.0049 11.2824C71.6475 11.6236 71.3714 12.0621 71.1765 12.5982C70.9816 13.118 70.8841 13.6297 70.8841 14.1332V21.1017H68.6181V8.82153H70.8841V9.4794C70.8841 9.7393 70.9572 9.89361 71.1034 9.94235C71.2496 9.97483 71.412 9.89361 71.5907 9.69869C71.8344 9.39006 72.1024 9.17077 72.3948 9.04082C72.7034 8.89463 73.0851 8.82153 73.5399 8.82153H75.0262V10.7464H73.345Z" fill="#00AB00"/>
<path d="M60.7002 21.2966C59.6931 21.2966 58.7834 21.0286 57.9712 20.4926C57.1753 19.9403 56.5418 19.185 56.0707 18.2266C55.6159 17.252 55.3885 16.1636 55.3885 14.9616C55.3885 13.7596 55.6159 12.6793 56.0707 11.721C56.5418 10.7464 57.1753 9.99102 57.9712 9.45498C58.7834 8.9027 59.6931 8.62656 60.7002 8.62656H61.6017C62.5926 8.62656 63.4941 8.9027 64.3063 9.45498C65.1184 9.99102 65.7519 10.7464 66.2068 11.721C66.6778 12.6793 66.9134 13.7596 66.9134 14.9616C66.9134 16.1636 66.6778 17.252 66.2068 18.2266C65.7519 19.185 65.1184 19.9403 64.3063 20.4926C63.5103 21.0286 62.6088 21.2966 61.6017 21.2966H60.7002ZM61.6017 19.323C62.1377 19.323 62.6332 19.1362 63.088 18.7626C63.559 18.389 63.9245 17.8692 64.1844 17.2032C64.4443 16.5372 64.5743 15.79 64.5743 14.9616C64.5743 14.1332 64.4443 13.3941 64.1844 12.7443C63.9245 12.0783 63.559 11.5585 63.088 11.1849C62.6332 10.7951 62.1296 10.6002 61.5773 10.6002H60.7002C60.1479 10.6002 59.6443 10.787 59.1895 11.1606C58.7347 11.5342 58.3692 12.054 58.0931 12.72C57.8332 13.3697 57.7032 14.1169 57.7032 14.9616C57.7032 15.8063 57.8332 16.5616 58.0931 17.2276C58.3692 17.8773 58.7347 18.389 59.1895 18.7626C59.6443 19.1362 60.1479 19.323 60.7002 19.323H61.6017Z" fill="#00AB00"/>
<path d="M37.0822 4.04587H40.2254L44.9523 16.521C45.0497 16.7809 45.1959 16.9108 45.3908 16.9108C45.5858 16.9108 45.732 16.7809 45.8294 16.521L50.5563 4.04587H53.7238V21.1017H51.3848L51.4091 9.91795C51.4091 9.73927 51.3523 9.61744 51.2386 9.55247C51.1411 9.47125 51.0274 9.455 50.8974 9.50374C50.7837 9.53622 50.7025 9.62556 50.6538 9.77176L46.3167 21.1017H44.4406L40.1523 9.77176C40.0873 9.62556 39.9898 9.53622 39.8599 9.50374C39.7462 9.455 39.6406 9.47125 39.5431 9.55247C39.4457 9.63369 39.3969 9.75551 39.3969 9.91795L39.4213 21.1017H37.0822V4.04587Z" fill="#00AB00"/>
<path fill-rule="evenodd" clip-rule="evenodd" d="M0 25.4408H9.08951V12.2238C9.08951 11.8001 9.69775 11.732 9.79139 12.1453L11.9616 21.723H17.4152V18.4672C17.4152 18.2709 17.5745 18.1118 17.7706 18.1118H26.3959V0.0601501H17.3064V3.31601C17.3064 3.51225 17.1474 3.67134 16.9511 3.67134H7.8713L8.6154 6.9553C8.66577 7.17758 8.49679 7.38914 8.26887 7.38914H0V25.4408Z" fill="#00AB00"/>
</g>
</g>
<path d="M102.42 20.6134V6.61337H104.9L110.38 15.9334C110.6 16.3134 111.02 16.1934 111.02 15.7534L110.98 6.61337H113.24V20.6134H110.78L105.3 11.2934C105.06 10.9134 104.66 11.0534 104.66 11.4734L104.7 20.6134H102.42ZM118.535 20.7734C116.515 20.7734 115.215 19.6534 115.215 17.8934C115.215 15.9334 116.755 15.0134 118.795 14.6934L121.015 14.3334C121.395 14.2734 121.555 14.1534 121.555 13.8734C121.555 12.9134 120.855 12.1334 119.915 12.1334H119.155C118.195 12.1334 117.495 12.7134 117.415 13.7734H115.275C115.435 11.6934 117.175 10.3734 119.155 10.3734H119.935C122.255 10.3734 123.675 11.9934 123.675 14.1534V18.0534C123.675 18.7734 123.995 18.8334 124.815 18.8334V20.6134H123.455C122.655 20.6134 122.275 20.3934 122.035 19.7734C121.875 19.4734 121.615 19.4534 121.355 19.7134C120.855 20.2734 119.775 20.7734 118.535 20.7734ZM118.855 19.0734C120.375 19.0734 121.575 18.0134 121.575 16.4934V16.4334C121.575 16.0534 121.355 15.8934 120.955 15.9534L119.315 16.2334C118.135 16.4334 117.375 16.7534 117.375 17.7934C117.375 18.5934 117.995 19.0734 118.855 19.0734ZM126.205 20.6134V10.5334H128.305V11.0934C128.305 11.4934 128.605 11.6334 128.965 11.3134C129.485 10.7334 130.125 10.3734 130.825 10.3734H131.505C132.645 10.3734 133.345 10.8534 133.825 11.5734C134.045 11.8734 134.265 11.8734 134.545 11.5934C135.105 10.8934 135.965 10.3734 136.845 10.3734H137.605C139.425 10.3734 140.705 11.9734 140.705 14.1134V20.6134H138.605V14.4934C138.605 13.2134 137.985 12.2534 137.065 12.2534H136.425C135.305 12.2534 134.505 13.6334 134.505 15.2134V20.6134H132.405V14.4934C132.405 13.1734 131.785 12.2534 130.885 12.2534H130.225C129.105 12.2534 128.305 13.6734 128.305 15.2134V20.6134H126.205ZM145.24 15.9934C144.86 15.9934 144.66 16.2334 144.72 16.6134C144.92 17.7534 145.62 18.9734 146.88 18.9734H147.62C148.68 18.9734 149.42 18.2134 149.6 17.2934H151.62C151.4 19.2534 149.72 20.7734 147.62 20.7734H146.86C144.38 20.7734 142.52 18.5734 142.52 15.5334C142.52 12.3734 144.68 10.3734 146.82 10.3734H147.62C149.98 10.3734 151.7 12.5534 151.7 15.1734C151.7 15.5734 151.68 15.7934 151.66 15.9934H145.24ZM144.96 13.7134C144.8 14.1134 145 14.3934 145.44 14.3934H148.96C149.38 14.3934 149.6 14.1334 149.48 13.7334C149.24 12.8134 148.5 12.0934 147.62 12.0934H146.9C146.1 12.0934 145.34 12.6934 144.96 13.7134ZM156.706 20.7734C154.766 20.7734 153.066 19.5734 153.006 17.6734H155.086C155.186 18.5534 155.906 19.0934 156.706 19.0934H157.426C158.166 19.0934 158.886 18.7334 158.886 17.8134C158.886 17.0734 158.466 16.6934 157.606 16.5534L155.706 16.1734C154.086 15.8534 153.206 14.8734 153.206 13.3934C153.206 11.5934 154.806 10.3734 156.546 10.3734H157.366C159.106 10.3734 160.726 11.5534 160.766 13.3334H158.726C158.666 12.6134 158.046 12.0534 157.326 12.0534H156.606C155.906 12.0534 155.326 12.4534 155.326 13.2134C155.326 13.7934 155.686 14.2334 156.486 14.3934L158.426 14.7734C160.006 15.0934 161.006 15.7534 161.006 17.6534C161.006 19.5334 159.386 20.7734 157.506 20.7734H156.706Z" fill="#00AB00"/>
<defs>
<clipPath id="clip0_1_8">
<rect width="100" height="26.2267" fill="white"/>
</clipPath>
</defs>
</svg>
